<svg width="28" height="28" viewBox="0 0 28 28" fill="none" xmlns="http://www.w3.org/2000/svg">
<circle cx="14" cy="14" r="14" fill="#888888"/>
<path d="M18.4545 9.54492L15.9091 12.0904M15.9091 12.0904V10.1813M15.9091 12.0904H17.8182" stroke="white" stroke-width="1.5" stroke-linecap="round" stroke-linejoin="round"/>
<path d="M12.7515 9.7458L13.1645 10.4859C13.5367 11.1541 13.3872 12.0297 12.8004 12.6171C12.8004 12.6171 12.0877 13.3292 13.3795 14.6203C14.6694 15.9103 15.3822 15.1994 15.3822 15.1994C15.9695 14.6121 16.8458 14.4625 17.5134 14.8348L18.2535 15.2484C19.2621 15.811 19.3811 17.225 18.4946 18.1121C17.962 18.6441 17.3091 19.059 16.5881 19.0857C15.3739 19.1322 13.3114 18.8248 11.2426 16.7566C9.17445 14.6878 8.86709 12.6253 8.91354 11.4112C8.9409 10.6902 9.35518 10.0373 9.88718 9.50462C10.7743 8.61816 12.1883 8.73716 12.7508 9.74644" fill="white"/>
</svg>
