<svg width="24" height="24" viewBox="0 0 24 24" fill="none" xmlns="http://www.w3.org/2000/svg">
<g id="solar:chat-round-dots-bold-duotone">
<path id="Vector" opacity="0.5" d="M12 23C18.075 23 23 18.075 23 12C23 5.925 18.075 1 12 1C5.925 1 1 5.925 1 12C1 13.76 1.413 15.423 2.148 16.898C2.343 17.29 2.408 17.738 2.295 18.161L1.64 20.609C1.57523 20.8513 1.57532 21.1064 1.64027 21.3486C1.70522 21.5909 1.83274 21.8118 2.01004 21.9892C2.18734 22.1666 2.40817 22.2942 2.65038 22.3593C2.89259 22.4244 3.14767 22.4246 3.39 22.36L5.84 21.705C6.26455 21.599 6.71319 21.6512 7.102 21.852C8.62357 22.6093 10.3004 23.0023 12 23Z" fill="#A3A3A3"/>
<path id="Vector_2" d="M10.9 11.9999C10.9 12.2916 11.0159 12.5714 11.2222 12.7777C11.4285 12.984 11.7083 13.0999 12 13.0999C12.2917 13.0999 12.5715 12.984 12.7778 12.7777C12.9841 12.5714 13.1 12.2916 13.1 11.9999C13.1 11.7082 12.9841 11.4284 12.7778 11.2221C12.5715 11.0158 12.2917 10.8999 12 10.8999C11.7083 10.8999 11.4285 11.0158 11.2222 11.2221C11.0159 11.4284 10.9 11.7082 10.9 11.9999ZM6.5 11.9999C6.5 12.2916 6.61589 12.5714 6.82218 12.7777C7.02847 12.984 7.30826 13.0999 7.6 13.0999C7.89174 13.0999 8.17153 12.984 8.37782 12.7777C8.58411 12.5714 8.7 12.2916 8.7 11.9999C8.7 11.7082 8.58411 11.4284 8.37782 11.2221C8.17153 11.0158 7.89174 10.8999 7.6 10.8999C7.30826 10.8999 7.02847 11.0158 6.82218 11.2221C6.61589 11.4284 6.5 11.7082 6.5 11.9999ZM15.3 11.9999C15.3 12.2916 15.4159 12.5714 15.6222 12.7777C15.8285 12.984 16.1083 13.0999 16.4 13.0999C16.6917 13.0999 16.9715 12.984 17.1778 12.7777C17.3841 12.5714 17.5 12.2916 17.5 11.9999C17.5 11.7082 17.3841 11.4284 17.1778 11.2221C16.9715 11.0158 16.6917 10.8999 16.4 10.8999C16.1083 10.8999 15.8285 11.0158 15.6222 11.2221C15.4159 11.4284 15.3 11.7082 15.3 11.9999Z" fill="#A3A3A3"/>
</g>
</svg>
