<svg width="20" height="20" viewBox="0 0 20 20" fill="none" xmlns="http://www.w3.org/2000/svg">
<g id="solar:close-circle-bold">
<path id="Vector" fill-rule="evenodd" clip-rule="evenodd" d="M18.3333 9.99996C18.3333 14.6025 14.6025 18.3333 10 18.3333C5.39751 18.3333 1.66667 14.6025 1.66667 9.99996C1.66667 5.39746 5.39751 1.66663 10 1.66663C14.6025 1.66663 18.3333 5.39746 18.3333 9.99996ZM7.47501 7.47496C7.59219 7.35792 7.75105 7.29218 7.91667 7.29218C8.0823 7.29218 8.24115 7.35792 8.35834 7.47496L10 9.11663L11.6417 7.47496C11.7602 7.36456 11.9169 7.30446 12.0788 7.30731C12.2407 7.31017 12.3952 7.37576 12.5097 7.49027C12.6242 7.60479 12.6898 7.75927 12.6927 7.92119C12.6955 8.08311 12.6354 8.23981 12.525 8.35829L10.8833 9.99996L12.525 11.6416C12.6354 11.7601 12.6955 11.9168 12.6927 12.0787C12.6898 12.2406 12.6242 12.3951 12.5097 12.5096C12.3952 12.6242 12.2407 12.6897 12.0788 12.6926C11.9169 12.6955 11.7602 12.6354 11.6417 12.525L10 10.8833L8.35834 12.525C8.23986 12.6354 8.08315 12.6955 7.92124 12.6926C7.75932 12.6897 7.60483 12.6242 7.49032 12.5096C7.37581 12.3951 7.31022 12.2406 7.30736 12.0787C7.3045 11.9168 7.3646 11.7601 7.47501 11.6416L9.11667 9.99996L7.47501 8.35829C7.35796 8.2411 7.29222 8.08225 7.29222 7.91663C7.29222 7.751 7.35796 7.59215 7.47501 7.47496Z" fill="#E2E2E2"/>
</g>
</svg>
