<svg width="24" height="24" viewBox="0 0 24 24" fill="none" xmlns="http://www.w3.org/2000/svg">
<circle cx="12" cy="12" r="11.5" fill="#007AFF" stroke="white"/>
<g clip-path="url(#clip0_55_2136)">
<path d="M16.7873 8.21246C16.6199 8.0451 16.4213 7.91234 16.2026 7.82177C15.984 7.73119 15.7496 7.68457 15.513 7.68457C15.2763 7.68457 15.042 7.73119 14.8233 7.82177C14.6047 7.91234 14.406 8.0451 14.2387 8.21246L8.82669 13.6245C8.56966 13.8817 8.38637 14.2031 8.29594 14.5553L7.69782 16.8832C7.68299 16.9411 7.68352 17.0019 7.69936 17.0596C7.7152 17.1172 7.74581 17.1698 7.78815 17.212C7.8305 17.2542 7.88312 17.2846 7.94083 17.3003C7.99853 17.3159 8.05932 17.3162 8.11719 17.3012L10.4444 16.7038C10.7966 16.6135 11.1182 16.4302 11.3753 16.173L16.7873 10.761C16.9546 10.5937 17.0874 10.395 17.178 10.1764C17.2685 9.95775 17.3152 9.72341 17.3152 9.48675C17.3152 9.25008 17.2685 9.01574 17.178 8.7971C17.0874 8.57845 16.9546 8.37979 16.7873 8.21246ZM14.7248 8.69853C14.9338 8.48948 15.2173 8.37204 15.513 8.37204C15.8086 8.37204 16.0921 8.48948 16.3012 8.69853C16.5102 8.90758 16.6277 9.19111 16.6277 9.48675C16.6277 9.78239 16.5102 10.0659 16.3012 10.275L15.7656 10.8105L14.1892 9.23409L14.7248 8.69853ZM13.7031 9.72015L15.2796 11.2966L10.8892 15.687C10.719 15.8569 10.5062 15.978 10.2732 16.0376L8.50838 16.4913L8.96213 14.7265C9.02131 14.4933 9.14246 14.2805 9.31276 14.1105L13.7031 9.72015Z" fill="white"/>
</g>
<defs>
<clipPath id="clip0_55_2136">
<rect width="11" height="11" fill="white" transform="translate(7 7)"/>
</clipPath>
</defs>
</svg>
