<svg width="68" height="68" viewBox="0 0 68 68" fill="none" xmlns="http://www.w3.org/2000/svg">
<rect width="68" height="68" rx="34" fill="#131313"/>
<path opacity="0.6" d="M46.8617 47.9365C49.2383 46.6415 50.6667 44.9782 50.6667 43.1665C50.6667 41.2465 49.0617 39.4932 46.4233 38.1665C43.3717 36.6332 38.9367 35.6665 34 35.6665C29.0633 35.6665 24.6283 36.6332 21.5767 38.1665C18.9383 39.4932 17.3333 41.2465 17.3333 43.1665C17.3333 45.0865 18.9383 46.8398 21.5767 48.1665C24.6283 49.6998 29.0633 50.6665 34 50.6665C39.1783 50.6665 43.8033 49.6048 46.8617 47.9365Z" fill="white"/>
<path fill-rule="evenodd" clip-rule="evenodd" d="M29.4167 20.6668C29.4167 19.4513 29.8996 18.2855 30.7591 17.4259C31.6186 16.5664 32.7844 16.0835 34 16.0835C35.2156 16.0835 36.3814 16.5664 37.2409 17.4259C38.1005 18.2855 38.5833 19.4513 38.5833 20.6668C38.5833 21.8824 38.1005 23.0482 37.2409 23.9077C36.3814 24.7673 35.2156 25.2502 34 25.2502C32.7844 25.2502 31.6186 24.7673 30.7591 23.9077C29.8996 23.0482 29.4167 21.8824 29.4167 20.6668Z" fill="white"/>
<path d="M27.705 33.2901L24.08 32.0818C23.4589 31.8769 22.9401 31.4415 22.6306 30.8653C22.3211 30.2891 22.2444 29.6162 22.4165 28.9852C22.5886 28.3542 22.9962 27.8133 23.5554 27.474C24.1145 27.1348 24.7825 27.023 25.4217 27.1618L28.585 27.8401L28.935 27.9134C32.3943 28.6297 35.9661 28.6047 39.415 27.8401L42.5767 27.1618C43.2162 27.0216 43.8852 27.1324 44.4454 27.4714C45.0056 27.8105 45.4141 28.3517 45.5866 28.9833C45.759 29.615 45.6822 30.2887 45.3721 30.8654C45.0619 31.442 44.5421 31.8775 43.92 32.0818L40.295 33.2901C39.8567 33.4368 39.6383 33.5101 39.4733 33.6118C39.1987 33.7811 38.9791 34.0265 38.8413 34.3182C38.7034 34.6099 38.6532 34.9354 38.6967 35.2551C38.7233 35.4468 38.8067 35.6618 38.9717 36.0934L41.05 41.4968C41.2736 42.0747 41.2703 42.7157 41.0409 43.2913C40.8116 43.867 40.373 44.3345 39.8133 44.6003C39.2535 44.866 38.614 44.9103 38.0229 44.7242C37.4319 44.538 36.9331 44.1353 36.6267 43.5968L34 39.0001L31.3733 43.5951C31.0669 44.1336 30.5681 44.5364 29.9771 44.7225C29.386 44.9086 28.7465 44.8644 28.1868 44.5986C27.627 44.3329 27.1884 43.8653 26.9591 43.2897C26.7297 42.7141 26.7264 42.073 26.95 41.4951L29.0283 36.0934C29.195 35.6618 29.2767 35.4468 29.3033 35.2551C29.3468 34.9354 29.2966 34.6099 29.1587 34.3182C29.0209 34.0265 28.8013 33.7811 28.5267 33.6118C28.3617 33.5101 28.1433 33.4368 27.705 33.2901Z" fill="white"/>
</svg>
