<svg width="201" height="236" viewBox="0 0 201 236" fill="none" xmlns="http://www.w3.org/2000/svg">
<g id="undraw_confirmed_re_sef7 1" clip-path="url(#clip0_162_3477)">
<path id="Vector" d="M142.732 198.047L144.71 236C144.71 236 61.0271 156.419 50.6018 133.134C40.1764 109.85 59.8006 52.2515 59.8006 52.2515L103.342 76.1487L142.732 198.047Z" fill="#9F616A"/>
<path id="Vector_2" d="M14.4195 36.3203L1.54114 37.5458C1.54114 37.5458 -5.20472 52.2518 15.6461 53.4773L14.4195 36.3203Z" fill="#9F616A"/>
<path id="Vector_3" d="M14.4195 58.9917L1.54114 60.2172C1.54114 60.2172 -5.20472 74.9232 15.6461 76.1487L14.4195 58.9917Z" fill="#9F616A"/>
<path id="Vector_4" d="M14.4195 83.502L1.54114 84.7274C1.54114 84.7274 -5.20472 99.4334 15.6461 100.659L14.4195 83.502Z" fill="#9F616A"/>
<path id="Vector_5" d="M18.099 108.012L5.22058 109.237C5.22058 109.237 -1.52528 123.943 19.3255 125.169L18.099 108.012Z" fill="#9F616A"/>
<path id="Vector_6" d="M8.1499 42.228H9.12709V15.4807C9.12708 13.4477 9.52783 11.4347 10.3065 9.55647C11.0851 7.67827 12.2263 5.9717 13.665 4.53419C15.1037 3.09667 16.8117 1.95638 18.6915 1.1784C20.5712 0.400424 22.5859 1.55756e-06 24.6206 0H81.3355C83.3702 -4.15338e-06 85.3849 0.400412 87.2646 1.17838C89.1444 1.95635 90.8524 3.09665 92.2911 4.53415C93.7298 5.97166 94.871 7.67823 95.6497 9.55642C96.4283 11.4346 96.8291 13.4477 96.8291 15.4806V162.219C96.8291 164.252 96.4283 166.265 95.6497 168.143C94.8711 170.021 93.7298 171.728 92.2911 173.165C90.8524 174.603 89.1444 175.743 87.2647 176.521C85.3849 177.299 83.3702 177.699 81.3356 177.699H24.6206C20.5115 177.699 16.5707 176.068 13.6651 173.165C10.7595 170.262 9.12711 166.325 9.1271 162.219V61.2672H8.1499V42.228Z" fill="#3F3D56"/>
<path id="Vector_7" d="M23.9954 4.02736H31.3986C31.0582 4.86134 30.9282 5.76619 31.0202 6.66218C31.1122 7.55817 31.4233 8.41781 31.9261 9.16537C32.4289 9.91293 33.108 10.5255 33.9035 10.949C34.6991 11.3726 35.5867 11.5941 36.4881 11.5942H68.9794C69.8808 11.5942 70.7684 11.3726 71.564 10.949C72.3595 10.5255 73.0387 9.91294 73.5415 9.16538C74.0443 8.41781 74.3554 7.55817 74.4474 6.66218C74.5393 5.76618 74.4094 4.86133 74.0689 4.02734H80.9835C84.0522 4.02734 86.9951 5.24534 89.165 7.41341C91.3349 9.58147 92.5539 12.522 92.5539 15.5881V162.111C92.5539 163.629 92.2546 165.132 91.6731 166.535C91.0917 167.938 90.2394 169.212 89.165 170.286C88.0906 171.359 86.8151 172.211 85.4113 172.792C84.0075 173.373 82.503 173.672 80.9835 173.672H23.9954C22.476 173.672 20.9714 173.373 19.5676 172.792C18.1639 172.211 16.8883 171.359 15.8139 170.286C14.7395 169.212 13.8873 167.938 13.3058 166.535C12.7243 165.132 12.425 163.629 12.425 162.111V15.5881C12.425 14.0699 12.7243 12.5666 13.3058 11.164C13.8873 9.76138 14.7395 8.48693 15.8139 7.41342C16.8883 6.3399 18.1639 5.48834 19.5676 4.90736C20.9714 4.32638 22.476 4.02735 23.9954 4.02736Z" fill="white"/>
<path id="Vector_8" d="M64.699 45.0762H40.2798V50.9639H64.699V45.0762Z" fill="#007AFF"/>
<path id="Vector_9" d="M65.8615 70.375H39.1172V76.2627H65.8615V70.375Z" fill="#E5E5E5"/>
<path id="Vector_10" d="M82.3347 83.0225H22.644V88.9101H82.3347V83.0225Z" fill="#E5E5E5"/>
<path id="Vector_11" d="M82.3347 95.6699H22.644V101.558H82.3347V95.6699Z" fill="#E5E5E5"/>
<path id="Vector_12" d="M200.5 217.814L131.858 139.568L129.405 89.3228L103.648 46.4303L96.2894 28.0479C96.2894 28.0479 79.1182 29.8861 93.2231 64.8128L99.0491 83.5016C93.7974 94.8035 91.0767 107.114 91.0767 119.575V162.4C91.0767 172.484 139.171 227.412 144.769 235.802L200.5 217.814Z" fill="#9F616A"/>
<path id="Vector_13" opacity="0.2" d="M98.3088 50.065L103.429 47.5506L103.255 47.1956L98.5237 49.519L91.3818 30.8101L91.0122 30.9512L98.3088 50.065Z" fill="black"/>
<path id="Vector_14" opacity="0.2" d="M1.60969 37.3594L1.4729 37.7305L9.05831 40.5224L9.1951 40.1513L1.60969 37.3594Z" fill="black"/>
<path id="Vector_15" opacity="0.2" d="M1.60969 60.2896L1.4729 60.6606L9.05831 63.4525L9.1951 63.0815L1.60969 60.2896Z" fill="black"/>
<path id="Vector_16" opacity="0.2" d="M1.60969 84.8009L1.4729 85.1719L9.05831 87.9638L9.1951 87.5927L1.60969 84.8009Z" fill="black"/>
<path id="Vector_17" opacity="0.2" d="M5.58377 109.32L5.4126 109.676L9.10562 111.447L9.27679 111.091L5.58377 109.32Z" fill="black"/>
<path id="Vector_18" d="M52.5195 152.369C61.9664 152.369 69.6245 144.717 69.6245 135.278C69.6245 125.839 61.9664 118.187 52.5195 118.187C43.0727 118.187 35.4146 125.839 35.4146 135.278C35.4146 144.717 43.0727 152.369 52.5195 152.369Z" fill="#007AFF"/>
<path id="Vector_19" d="M50.8895 142.492L45.7703 135.915L48.7473 133.601L51.1712 136.715L59.3605 128.078L62.0989 130.67L50.8895 142.492Z" fill="white"/>
</g>
<defs>
<clipPath id="clip0_162_3477">
<rect width="200" height="236" fill="white" transform="translate(0.5)"/>
</clipPath>
</defs>
</svg>
