<svg width="140" height="140" viewBox="0 0 140 140" fill="none" xmlns="http://www.w3.org/2000/svg">
<g id="solar:verified-check-bold">
<path id="Vector" fill-rule="evenodd" clip-rule="evenodd" d="M55.9532 18.6665C55.0325 19.4928 54.0686 20.2697 53.0657 20.994C51.3273 22.1606 49.3732 22.9656 47.3198 23.374C46.4273 23.549 45.494 23.6248 43.6332 23.7706C38.9607 24.144 36.6215 24.3306 34.6732 25.019C32.4448 25.8044 30.4208 27.0794 28.7501 28.7501C27.0794 30.4208 25.8045 32.4448 25.019 34.6731C24.3307 36.6215 24.144 38.9606 23.7707 43.6331C23.7037 44.8682 23.5713 46.0988 23.374 47.3198C22.9657 49.3731 22.1607 51.3273 20.994 53.0656C20.4865 53.824 19.8798 54.5356 18.6665 55.9531C15.6273 59.5231 14.1048 61.3081 13.2123 63.1748C11.1532 67.4915 11.1532 72.5081 13.2123 76.8248C14.1048 78.6915 15.6273 80.4765 18.6665 84.0465C19.8798 85.464 20.4865 86.1756 20.994 86.934C22.1607 88.6723 22.9657 90.6265 23.374 92.6798C23.549 93.5723 23.6248 94.5056 23.7707 96.3665C24.144 101.039 24.3307 103.378 25.019 105.326C25.8045 107.555 27.0794 109.579 28.7501 111.25C30.4208 112.92 32.4448 114.195 34.6732 114.981C36.6215 115.669 38.9607 115.856 43.6332 116.229C45.494 116.375 46.4273 116.451 47.3198 116.626C49.3732 117.034 51.3273 117.845 53.0657 119.006C53.824 119.513 54.5357 120.12 55.9532 121.333C59.5232 124.372 61.3082 125.895 63.1748 126.787C67.4915 128.846 72.5082 128.846 76.8248 126.787C78.6915 125.895 80.4765 124.372 84.0465 121.333C85.464 120.12 86.1757 119.513 86.934 119.006C88.6723 117.839 90.6265 117.034 92.6798 116.626C93.5723 116.451 94.5057 116.375 96.3665 116.229C101.039 115.856 103.378 115.669 105.327 114.981C107.555 114.195 109.579 112.92 111.25 111.25C112.92 109.579 114.195 107.555 114.981 105.326C115.669 103.378 115.856 101.039 116.229 96.3665C116.375 94.5056 116.451 93.5723 116.626 92.6798C117.034 90.6265 117.845 88.6723 119.006 86.934C119.513 86.1756 120.12 85.464 121.333 84.0465C124.372 80.4765 125.895 78.6915 126.787 76.8248C128.847 72.5081 128.847 67.4915 126.787 63.1748C125.895 61.3081 124.372 59.5231 121.333 55.9531C120.507 55.0324 119.73 54.0686 119.006 53.0656C117.838 51.3276 117.029 49.3742 116.626 47.3198C116.428 46.0988 116.296 44.8682 116.229 43.6331C115.856 38.9606 115.669 36.6215 114.981 34.6731C114.195 32.4448 112.92 30.4208 111.25 28.7501C109.579 27.0794 107.555 25.8044 105.327 25.019C103.378 24.3306 101.039 24.144 96.3665 23.7706C95.1315 23.7036 93.9009 23.5712 92.6798 23.374C90.6254 22.9704 88.6721 22.1613 86.934 20.994C85.9311 20.2697 84.9672 19.4928 84.0465 18.6665C80.4765 15.6273 78.6915 14.1048 76.8248 13.2123C74.6942 12.1925 72.362 11.6631 69.9998 11.6631C67.6377 11.6631 65.3055 12.1925 63.1748 13.2123C61.3082 14.1048 59.5232 15.6273 55.9532 18.6665ZM95.509 57.534C96.3335 56.6316 96.7782 55.4461 96.7506 54.2241C96.7231 53.0021 96.2254 51.8378 95.3611 50.9735C94.4968 50.1093 93.3325 49.6115 92.1105 49.584C90.8886 49.5564 89.703 50.0012 88.8007 50.8256L60.509 79.1173L51.199 69.8131C50.2966 68.9887 49.1111 68.5439 47.8891 68.5715C46.6672 68.599 45.5029 69.0968 44.6386 69.961C43.7743 70.8253 43.2766 71.9896 43.249 73.2116C43.2215 74.4336 43.6662 75.6191 44.4907 76.5215L57.149 89.1798C58.0392 90.0682 59.2455 90.5671 60.5032 90.5671C61.7608 90.5671 62.9671 90.0682 63.8573 89.1798L95.509 57.534Z" fill="#007AFF"/>
</g>
</svg>
