<svg width="68" height="68" viewBox="0 0 68 68" fill="none" xmlns="http://www.w3.org/2000/svg">
<rect width="68" height="68" rx="34" fill="white"/>
<path fill-rule="evenodd" clip-rule="evenodd" d="M28.2194 18.8948C31.8608 16.779 36.3367 16.8159 39.944 18.9917C43.5158 21.2117 45.6866 25.1738 45.6664 29.4359C45.5833 33.6701 43.2555 37.6502 40.3458 40.727C38.6664 42.5108 36.7877 44.0882 34.7481 45.4269C34.538 45.5484 34.3079 45.6297 34.0692 45.6668C33.8393 45.657 33.6155 45.5891 33.4179 45.4692C30.3041 43.4578 27.5722 40.8902 25.3539 37.8901C23.4977 35.3858 22.4431 32.3602 22.3333 29.2242C22.3309 24.9539 24.578 21.0106 28.2194 18.8948ZM30.3236 30.9915C30.9362 32.5016 32.382 33.4866 33.986 33.4866C35.0368 33.4941 36.047 33.0732 36.7914 32.3176C37.5357 31.562 37.9525 30.5346 37.9488 29.4641C37.9544 27.8302 36.9924 26.354 35.5121 25.7248C34.0318 25.0956 32.3251 25.4374 31.1889 26.5907C30.0527 27.7441 29.7111 29.4814 30.3236 30.9915Z" fill="#007AFF"/>
<ellipse opacity="0.4" cx="34" cy="49.0002" rx="8.33333" ry="1.66667" fill="#007AFF"/>
</svg>
