<svg width="25" height="24" viewBox="0 0 25 24" fill="none" xmlns="http://www.w3.org/2000/svg">
<g id="solar:home-2-bold-duotone">
<path id="Vector" opacity="0.5" d="M2.5 12.204C2.5 9.915 2.5 8.771 3.02 7.823C3.538 6.874 4.487 6.286 6.384 5.108L8.384 3.867C10.389 2.622 11.392 2 12.5 2C13.608 2 14.61 2.622 16.616 3.867L18.616 5.108C20.513 6.286 21.462 6.874 21.981 7.823C22.5 8.771 22.5 9.915 22.5 12.203V13.725C22.5 17.625 22.5 19.576 21.328 20.788C20.157 22 18.271 22 14.5 22H10.5C6.729 22 4.843 22 3.672 20.788C2.5 19.576 2.5 17.626 2.5 13.725V12.204Z" fill="#A3A3A3"/>
<path id="Vector_2" d="M11.75 18C11.75 18.1989 11.829 18.3897 11.9697 18.5303C12.1103 18.671 12.3011 18.75 12.5 18.75C12.6989 18.75 12.8897 18.671 13.0303 18.5303C13.171 18.3897 13.25 18.1989 13.25 18V15C13.25 14.8011 13.171 14.6103 13.0303 14.4697C12.8897 14.329 12.6989 14.25 12.5 14.25C12.3011 14.25 12.1103 14.329 11.9697 14.4697C11.829 14.6103 11.75 14.8011 11.75 15V18Z" fill="#A3A3A3"/>
</g>
</svg>
