<svg width="24" height="24" viewBox="0 0 24 24" fill="none" xmlns="http://www.w3.org/2000/svg">
<g id="solar:map-bold">
<path id="Vector" d="M2.436 5.14702C2 5.64302 2 6.49502 2 8.19702V17.591C2 18.797 2 19.4 2.315 19.854C2.629 20.308 3.179 20.499 4.279 20.88L5.573 21.329C6.274 21.572 6.813 21.759 7.266 21.879C7.562 21.958 7.833 21.726 7.833 21.42V6.27002C7.82954 6.14858 7.78597 6.03169 7.70908 5.93762C7.6322 5.84355 7.52633 5.77758 7.408 5.75002C7.019 5.65102 6.551 5.48902 5.91 5.26702C4.357 4.72802 3.58 4.45902 2.99 4.73202C2.77883 4.8309 2.59025 4.97216 2.436 5.14702ZM12.62 3.48102L11.084 4.54602C10.529 4.93102 10.121 5.21402 9.774 5.41502C9.69257 5.46108 9.6245 5.52752 9.57646 5.6078C9.52843 5.68809 9.50208 5.77948 9.5 5.87302V20.92C9.5 21.29 9.884 21.522 10.196 21.322C10.531 21.108 10.915 20.842 11.38 20.52L12.916 19.455C13.471 19.07 13.879 18.787 14.226 18.586C14.3074 18.54 14.3755 18.4735 14.4235 18.3932C14.4716 18.313 14.4979 18.2216 14.5 18.128V3.08002C14.5 2.70902 14.116 2.47802 13.804 2.67702C13.469 2.89202 13.085 3.15802 12.62 3.48102ZM19.72 3.12002L18.427 2.67202C17.726 2.42902 17.187 2.24202 16.734 2.12202C16.438 2.04302 16.167 2.27502 16.167 2.58102V17.731C16.1705 17.8525 16.214 17.9693 16.2909 18.0634C16.3678 18.1575 16.4737 18.2235 16.592 18.251C16.981 18.35 17.449 18.511 18.09 18.734C19.643 19.273 20.42 19.542 21.01 19.269C21.2212 19.1701 21.4097 19.0289 21.564 18.854C22 18.358 22 17.506 22 15.804V6.41002C22 5.20402 22 4.60002 21.685 4.14702C21.371 3.69302 20.821 3.50202 19.721 3.12102" fill="#007AFF"/>
</g>
</svg>
