<svg width="22" height="28" viewBox="0 0 22 28" fill="none" xmlns="http://www.w3.org/2000/svg">
<g id="Group">
<path id="Vector" d="M2.16254 13.0125C2.49036 12.9661 2.8232 13.0516 3.08802 13.2504C3.35283 13.4491 3.52799 13.7448 3.57504 14.0725C3.7315 15.1586 4.12439 16.1972 4.726 17.115C5.32761 18.0327 6.12328 18.8073 7.05688 19.384C7.99047 19.9607 9.03925 20.3255 10.1292 20.4526C11.2192 20.5798 12.3238 20.4663 13.365 20.12L13.7313 19.9863L15.6175 21.8725C14.7009 22.3493 13.7159 22.6812 12.6975 22.8563L12.25 22.9225V24.25C12.2497 24.5686 12.1277 24.875 11.909 25.1067C11.6903 25.3384 11.3913 25.4778 11.0733 25.4965C10.7552 25.5151 10.4421 25.4117 10.1978 25.2072C9.95343 25.0027 9.79642 24.7126 9.75879 24.3963L9.75004 24.25V22.9225C7.5775 22.648 5.55501 21.6683 3.99275 20.1339C2.4305 18.5994 1.41474 16.5948 1.10129 14.4275C1.07796 14.265 1.08687 14.0995 1.12752 13.9404C1.16816 13.7813 1.23975 13.6318 1.33818 13.5004C1.43662 13.369 1.55997 13.2583 1.7012 13.1746C1.84243 13.0909 2.00002 13.0358 2.16254 13.0125ZM11 0.5C12.6106 0.500093 14.159 1.12193 15.3223 2.23582C16.4855 3.34972 17.1739 4.86969 17.2438 6.47875L17.25 6.75V13C17.2504 14.1156 16.9522 15.211 16.3863 16.1725L16.215 16.4475L17.1138 17.3463C17.7913 16.3963 18.2513 15.2812 18.4238 14.0725C18.4709 13.7443 18.6464 13.4482 18.9118 13.2494C19.1771 13.0507 19.5106 12.9654 19.8388 13.0125C20.167 13.0596 20.4631 13.2351 20.6618 13.5005C20.8606 13.7658 20.9459 14.0993 20.8988 14.4275C20.6722 16.0119 20.0667 17.5183 19.1338 18.8188L18.9 19.1313L21.6063 21.8387C21.8305 22.0637 21.9606 22.3655 21.9703 22.683C21.98 23.0004 21.8685 23.3096 21.6585 23.5478C21.4484 23.7861 21.1556 23.9354 20.8394 23.9655C20.5233 23.9956 20.2075 23.9043 19.9563 23.71L19.8388 23.6063L0.393793 4.1625C0.169608 3.93755 0.039451 3.63571 0.0297577 3.31827C0.0200645 3.00083 0.131562 2.69161 0.341604 2.4534C0.551646 2.2152 0.844483 2.06587 1.16064 2.03575C1.47679 2.00563 1.79255 2.09699 2.04379 2.29125L2.16129 2.395L4.94879 5.1825C5.29612 3.84188 6.07888 2.65458 7.17415 1.80705C8.26941 0.959526 9.61516 0.499777 11 0.5ZM4.75004 11.005L12.7475 19.0025C11.816 19.2738 10.8341 19.3245 9.87965 19.1505C8.92516 18.9766 8.02426 18.5829 7.24829 18.0005C6.47233 17.4181 5.8426 16.663 5.40899 15.7951C4.97537 14.9272 4.74977 13.9702 4.75004 13V11.005Z" fill="white"/>
</g>
</svg>
