<svg width="28" height="28" viewBox="0 0 28 28" fill="none" xmlns="http://www.w3.org/2000/svg">
<circle cx="14" cy="14" r="14" fill="#F75555"/>
<path d="M18.0858 9.69858L19.588 8.19074C19.6927 8.08561 19.7501 7.94629 19.7501 7.79874C19.7501 7.65118 19.6927 7.51186 19.588 7.40674C19.3792 7.19775 19.0164 7.19775 18.8075 7.40674L17.3053 8.91521L15.8025 7.40674C15.5937 7.19775 15.2309 7.19775 15.0221 7.40674C14.918 7.51186 14.8605 7.65118 14.8605 7.79874C14.8605 7.94629 14.918 8.08561 15.0221 8.19074L16.5243 9.69858L15.0221 11.2064C14.918 11.3115 14.8605 11.4509 14.8605 11.5984C14.8605 11.746 14.918 11.8853 15.0221 11.9904C15.2309 12.1994 15.5937 12.1994 15.8025 11.9904L17.3053 10.4819L18.8075 11.9904C18.9123 12.0949 19.0504 12.1525 19.1981 12.1525C19.3457 12.1525 19.4839 12.0949 19.588 11.9904C19.6927 11.8853 19.7501 11.746 19.7501 11.5984C19.7501 11.4509 19.6927 11.3115 19.588 11.2064L18.0858 9.69858Z" fill="white"/>
<path fill-rule="evenodd" clip-rule="evenodd" d="M12.8948 14.1077C15.388 16.6002 15.9536 13.7167 17.541 15.303C19.0714 16.833 19.951 17.1395 18.012 19.078C17.7691 19.2731 16.226 21.6214 10.8029 16.1998C5.37908 10.7775 7.72599 9.23278 7.92123 8.98997C9.86492 7.04615 10.1662 7.93086 11.6966 9.46083C13.284 11.0478 10.4017 11.6153 12.8948 14.1077Z" fill="white"/>
</svg>
