<svg width="22" height="22" viewBox="0 0 22 22" fill="none" xmlns="http://www.w3.org/2000/svg">
<g id="solar:dollar-minimalistic-outline">
<path id="Vector" fill-rule="evenodd" clip-rule="evenodd" d="M10.9999 2.521C8.7511 2.521 6.59439 3.41433 5.00424 5.00449C3.41409 6.59464 2.52075 8.75135 2.52075 11.0002C2.52075 13.249 3.41409 15.4057 5.00424 16.9958C6.59439 18.586 8.7511 19.4793 10.9999 19.4793C13.2487 19.4793 15.4054 18.586 16.9956 16.9958C18.5857 15.4057 19.4791 13.249 19.4791 11.0002C19.4791 8.75135 18.5857 6.59464 16.9956 5.00449C15.4054 3.41433 13.2487 2.521 10.9999 2.521ZM1.14575 11.0002C1.14575 5.55791 5.55767 1.146 10.9999 1.146C16.4422 1.146 20.8541 5.55791 20.8541 11.0002C20.8541 16.4424 16.4422 20.8543 10.9999 20.8543C5.55767 20.8543 1.14575 16.4424 1.14575 11.0002ZM10.9999 4.81266C11.1823 4.81266 11.3571 4.8851 11.4861 5.01403C11.615 5.14296 11.6874 5.31783 11.6874 5.50016V5.79075C13.1816 6.05841 14.4374 7.18133 14.4374 8.7085C14.4374 8.89083 14.365 9.0657 14.2361 9.19463C14.1071 9.32356 13.9323 9.396 13.7499 9.396C13.5676 9.396 13.3927 9.32356 13.2638 9.19463C13.1349 9.0657 13.0624 8.89083 13.0624 8.7085C13.0624 7.93483 12.2622 7.10433 10.9999 7.10433C9.73858 7.10433 8.93742 7.93483 8.93742 8.7085C8.93742 9.48216 9.73858 10.3127 10.9999 10.3127C12.7755 10.3127 14.4374 11.5346 14.4374 13.2918C14.4374 14.819 13.1816 15.9419 11.6874 16.2096V16.5002C11.6874 16.6825 11.615 16.8574 11.4861 16.9863C11.3571 17.1152 11.1823 17.1877 10.9999 17.1877C10.8176 17.1877 10.6427 17.1152 10.5138 16.9863C10.3849 16.8574 10.3124 16.6825 10.3124 16.5002V16.2096C8.81825 15.9419 7.56242 14.819 7.56242 13.2918C7.56242 13.1095 7.63485 12.9346 7.76378 12.8057C7.89271 12.6768 8.06758 12.6043 8.24992 12.6043C8.43225 12.6043 8.60712 12.6768 8.73605 12.8057C8.86498 12.9346 8.93742 13.1095 8.93742 13.2918C8.93742 14.0655 9.73858 14.896 10.9999 14.896C12.2622 14.896 13.0624 14.0655 13.0624 13.2918C13.0624 12.5182 12.2622 11.6877 10.9999 11.6877C9.22433 11.6877 7.56242 10.4657 7.56242 8.7085C7.56242 7.18133 8.81825 6.05841 10.3124 5.79075V5.50016C10.3124 5.31783 10.3849 5.14296 10.5138 5.01403C10.6427 4.8851 10.8176 4.81266 10.9999 4.81266Z" fill="#007AFF"/>
</g>
</svg>
