<svg width="24" height="24" viewBox="0 0 24 24" fill="none" xmlns="http://www.w3.org/2000/svg">
<g id="Moto2" clip-path="url(#clip0_142_5749)">
<path id="Vector" d="M12.0089 13.75H11.9911C10.9962 13.75 10.1897 14.5565 10.1897 15.5514V22.1983C10.1897 23.1932 10.9962 23.9997 11.9911 23.9997H12.0089C13.0038 23.9997 13.8103 23.1932 13.8103 22.1983V15.5514C13.8103 14.5565 13.0038 13.75 12.0089 13.75Z" fill="#007AFF"/>
<path id="Vector_2" d="M19.2713 2.0325H16.9584C16.7738 1.67297 16.4002 1.42641 15.968 1.42641H14.8959C14.5458 1.42641 14.2205 1.25813 14.0053 0.981562C13.5408 0.384375 12.8152 0 12 0C11.1848 0 10.4592 0.384375 9.99469 0.981562C9.77954 1.25813 9.45469 1.42641 9.10407 1.42641H8.03204C7.59985 1.42641 7.22626 1.67297 7.04157 2.0325H4.72876C4.44844 2.0325 4.2211 2.25984 4.2211 2.54016C4.2211 2.82047 4.44844 3.04781 4.72876 3.04781H7.04157C7.22626 3.40734 7.59985 3.65391 8.03204 3.65391H9.10407C9.45422 3.65391 9.77954 3.82219 9.99469 4.09875C10.4592 4.69594 11.1848 5.08031 12 5.08031C12.8152 5.08031 13.5408 4.69594 14.0053 4.09875C14.2205 3.82219 14.5453 3.65391 14.8959 3.65391H15.968C16.4002 3.65391 16.7738 3.40734 16.9584 3.04781H19.2713C19.5516 3.04781 19.7789 2.82047 19.7789 2.54016C19.7789 2.25984 19.5516 2.0325 19.2713 2.0325ZM12 3.94734C11.2172 3.94734 10.583 3.31313 10.583 2.53031C10.583 1.7475 11.2172 1.11328 12 1.11328C12.7828 1.11328 13.417 1.7475 13.417 2.53031C13.417 3.31313 12.7828 3.94734 12 3.94734ZM17.8144 8.62359C17.5725 7.37578 16.432 6.16875 15.1875 5.89313C14.4319 5.73609 13.4039 5.58234 12 5.57953C10.5966 5.58187 9.5686 5.73609 8.81251 5.89313C7.56797 6.16875 6.42751 7.37531 6.18563 8.62359C6.03376 9.38437 5.84579 11.505 5.86126 12.908C5.84579 14.3109 6.03376 16.432 6.18563 17.1923C6.42751 18.4406 7.56797 19.6472 8.81251 19.9228C8.9836 19.9584 9.16969 19.9936 9.36985 20.0273V15.5611C9.36985 14.1112 10.5497 12.9314 11.9995 12.9314C13.4494 12.9314 14.6292 14.1112 14.6292 15.5611V20.0273C14.8294 19.9936 15.0155 19.9584 15.1866 19.9228C16.4311 19.6472 17.5716 18.4406 17.8134 17.1923C17.9653 16.432 18.1533 14.3109 18.1378 12.908C18.1533 11.505 17.9653 9.38391 17.8134 8.62359H17.8144ZM9.0361 10.7466C9.00282 10.9177 8.84672 11.0831 8.67563 11.1211C8.57204 11.1427 8.43094 11.1637 8.23829 11.1642C8.04563 11.1642 7.90501 11.1427 7.80094 11.1211C7.63032 11.0831 7.47376 10.9177 7.44047 10.7466C7.41985 10.642 7.39594 10.2159 7.39594 9.63984C7.39594 9.06375 7.41938 8.63719 7.44047 8.53312C7.47376 8.36203 7.62985 8.19656 7.80094 8.15859C7.90454 8.13703 8.04563 8.11594 8.23829 8.11547C8.43094 8.11547 8.57157 8.13703 8.67563 8.15859C8.84626 8.19656 9.00282 8.36203 9.0361 8.53312C9.05673 8.63766 9.08063 9.09656 9.08063 9.63984C9.08063 10.2164 9.05719 10.6425 9.0361 10.7466ZM16.5586 10.7466C16.5253 10.9177 16.3692 11.0831 16.1981 11.1211C16.0945 11.1427 15.9534 11.1637 15.7608 11.1642C15.5681 11.1642 15.4275 11.1427 15.3234 11.1211C15.1528 11.0831 14.9963 10.9177 14.963 10.7466C14.9423 10.642 14.9184 10.2159 14.9184 9.63984C14.9184 9.06375 14.9419 8.63719 14.963 8.53312C14.9963 8.36203 15.1523 8.19656 15.3234 8.15859C15.427 8.13703 15.5681 8.11594 15.7608 8.11547C15.9534 8.11547 16.0941 8.13703 16.1981 8.15859C16.3688 8.19656 16.5253 8.36203 16.5586 8.53312C16.5792 8.63766 16.6031 9.09656 16.6031 9.63984C16.6031 10.2164 16.5797 10.6425 16.5586 10.7466Z" fill="#007AFF"/>
</g>
<defs>
<clipPath id="clip0_142_5749">
<rect width="24" height="24" fill="white"/>
</clipPath>
</defs>
</svg>
