<svg width="86" height="86" viewBox="0 0 86 86" fill="none" xmlns="http://www.w3.org/2000/svg">
<g filter="url(#filter0_d_60_2446)">
<rect x="16" y="16" width="46" height="46" rx="23" fill="white" shape-rendering="crispEdges"/>
<path d="M34.8527 46.6905L32.9016 43.5552L31.1366 44.048C29.4269 44.5282 28.2351 46.1046 28.2351 47.8772V50.4971C28.2351 50.7736 28.4614 50.9999 28.738 50.9999H36.6278L37.0074 47.5428C36.215 47.7623 35.3236 47.45 34.8527 46.6905ZM46.8634 44.0455L45.1009 43.5527L43.1498 46.693C42.6691 47.4649 41.746 47.764 40.9926 47.5403L41.3722 51H49.262C49.5385 51 49.7648 50.7737 49.7648 50.4971V47.8773C49.7649 46.1047 48.5731 44.5282 46.8634 44.0455Z" fill="#007AFF"/>
<path d="M40.9666 46.4403C41.4081 46.7428 42.0128 46.6157 42.2949 46.1613L43.8144 43.7146L41.7507 42.4384L39.0027 45.094H38.9987L38.7439 45.2681L38.9978 45.0941L36.2502 42.4383L34.1859 43.7146L35.7059 46.1612C35.988 46.6156 36.5923 46.7427 37.0338 46.4403L37.2934 46.2624L38.0735 47.0425L37.6787 50.6328H40.3212L39.9265 47.045L40.7083 46.2632L40.9666 46.4403ZM32.9041 31.3635C33.1782 31.0744 33.5679 30.8984 33.9928 30.8984H44.0021C44.427 30.8984 44.8167 31.0743 45.0933 31.366C45.1017 31.3378 45.4592 30.7876 45.2165 30.1089C44.8502 29.078 44.0322 29.229 39.5996 27.1245C39.4112 27.0424 39.208 27.0001 39.0025 27.0001C38.797 27.0001 38.5937 27.0424 38.4053 27.1245C33.9046 29.2603 33.1513 29.0847 32.786 30.1064C32.5382 30.7993 32.8953 31.3328 32.9041 31.3635ZM44.0021 31.9041H33.9928C33.7615 31.9041 33.5603 32.06 33.505 32.2863C33.351 32.9065 33.334 33.3245 33.334 33.8728C33.334 34.2249 33.4737 34.5672 33.7833 34.8275C33.902 38.9291 35.2551 40.2184 37.088 41.7753C37.4868 42.1159 37.994 42.3031 38.5185 42.3032H39.489C40.0132 42.3031 40.5203 42.1161 40.9189 41.7756C42.7097 40.2495 44.0854 39.0116 44.2182 34.8257C44.491 34.594 44.6683 34.2498 44.6683 33.8552C44.6683 33.4127 44.6683 32.9978 44.4898 32.2838C44.4346 32.06 44.2335 31.9041 44.0021 31.9041ZM40.2661 41.0107C40.0495 41.1957 39.7739 41.2974 39.489 41.2975H38.5185C38.2331 41.2974 37.9571 41.1953 37.7403 41.0097C36.2978 39.7855 34.9816 38.8018 34.8002 35.1249H34.8426L36.0218 36.2689C36.5347 36.7667 37.211 37.0408 37.9276 37.0408H40.0773C40.7913 37.0408 41.4676 36.7667 41.9805 36.2714L43.1648 35.1249H43.2004C43.0174 38.6441 41.8598 39.6535 40.2661 41.0107Z" fill="#007AFF"/>
</g>
<defs>
<filter id="filter0_d_60_2446" x="0" y="0" width="86" height="86" filterUnits="userSpaceOnUse" color-interpolation-filters="sRGB">
<feFlood flood-opacity="0" result="BackgroundImageFix"/>
<feColorMatrix in="SourceAlpha" type="matrix" values="0 0 0 0 0 0 0 0 0 0 0 0 0 0 0 0 0 0 127 0" result="hardAlpha"/>
<feOffset dx="4" dy="4"/>
<feGaussianBlur stdDeviation="10"/>
<feComposite in2="hardAlpha" operator="out"/>
<feColorMatrix type="matrix" values="0 0 0 0 0.955322 0 0 0 0 0.955322 0 0 0 0 0.955322 0 0 0 0.25 0"/>
<feBlend mode="normal" in2="BackgroundImageFix" result="effect1_dropShadow_60_2446"/>
<feBlend mode="normal" in="SourceGraphic" in2="effect1_dropShadow_60_2446" result="shape"/>
</filter>
</defs>
</svg>
