<svg width="16" height="16" viewBox="0 0 16 16" fill="none" xmlns="http://www.w3.org/2000/svg">
<g id="Image">
<g id="Group 3">
<mask id="mask0_883_1633" style="mask-type:luminance" maskUnits="userSpaceOnUse" x="0" y="0" width="16" height="16">
<path id="Clip 2" fill-rule="evenodd" clip-rule="evenodd" d="M0.500305 0.5H15.47V15.4624H0.500305V0.5Z" fill="white"/>
</mask>
<g mask="url(#mask0_883_1633)">
<path id="Fill 1" fill-rule="evenodd" clip-rule="evenodd" d="M4.73781 1.625C2.84706 1.625 1.62531 2.92025 1.62531 4.92425V11.0382C1.62531 13.043 2.84706 14.3375 4.73781 14.3375H11.2253C13.1206 14.3375 14.3453 13.043 14.3453 11.0382V4.92425C14.3453 2.92025 13.1206 1.625 11.2253 1.625H4.73781ZM11.2253 15.4625H4.7378C2.20281 15.4625 0.500305 13.6843 0.500305 11.0383V4.92425C0.500305 2.27825 2.20281 0.5 4.7378 0.5H11.2253C13.7641 0.5 15.4703 2.27825 15.4703 4.92425V11.0383C15.4703 13.6843 13.7641 15.4625 11.2253 15.4625Z" fill="#007AFF"/>
</g>
</g>
<path id="Fill 4" fill-rule="evenodd" clip-rule="evenodd" d="M2.96105 11.8852C2.82155 11.8852 2.6828 11.8342 2.57405 11.7307C2.3483 11.5177 2.3393 11.1607 2.55305 10.9364L3.69905 9.72666C4.3058 9.08241 5.32955 9.05091 5.9768 9.65841L6.6953 10.3874C6.89555 10.5899 7.22105 10.5937 7.42205 10.3957C7.4978 10.3064 9.1313 8.32266 9.1313 8.32266C9.4418 7.94616 9.8798 7.71366 10.3665 7.66566C10.854 7.62291 11.3273 7.76466 11.7045 8.07441C11.7368 8.10066 11.766 8.12616 13.413 9.81741C13.6298 10.0394 13.626 10.3957 13.4033 10.6124C13.1813 10.8307 12.8243 10.8239 12.6075 10.6019C12.6075 10.6019 11.0708 9.02466 10.9613 8.91816C10.845 8.82291 10.6583 8.76741 10.4745 8.78541C10.2878 8.80416 10.1198 8.89341 10.0005 9.03816C8.25755 11.1524 8.23655 11.1727 8.20805 11.2004C7.56455 11.8319 6.5258 11.8214 5.89355 11.1764C5.89355 11.1764 5.19605 10.4684 5.18405 10.4542C5.0108 10.2937 4.7018 10.3042 4.51655 10.4999L3.36905 11.7097C3.25805 11.8267 3.10955 11.8852 2.96105 11.8852Z" fill="#007AFF"/>
<path id="Fill 6" fill-rule="evenodd" clip-rule="evenodd" d="M5.4182 5.09668C5.00345 5.09668 4.66595 5.43418 4.66595 5.84968C4.66595 6.26518 5.00345 6.60343 5.41895 6.60343C5.83445 6.60343 6.1727 6.26518 6.1727 5.84968C6.1727 5.43493 5.83445 5.09743 5.4182 5.09668ZM5.41895 7.72843C4.3832 7.72843 3.54095 6.88543 3.54095 5.84968C3.54095 4.81393 4.3832 3.97168 5.41895 3.97168C6.45545 3.97243 7.2977 4.81543 7.2977 5.84968C7.2977 6.88543 6.4547 7.72843 5.41895 7.72843Z" fill="#007AFF"/>
</g>
</svg>
