<svg width="66" height="66" viewBox="0 0 66 66" fill="none" xmlns="http://www.w3.org/2000/svg">
<rect width="66" height="66" rx="33" fill="#007AFF" fill-opacity="0.22"/>
<circle cx="33" cy="33" r="18" fill="#007AFF" stroke="white" stroke-width="2"/>
<path d="M39.2903 27.7215C38.9568 27.3792 38.4633 27.2517 38.0031 27.3859L27.272 30.5065C26.7865 30.6414 26.4423 31.0286 26.3496 31.5205C26.2549 32.0212 26.5857 32.6567 27.0179 32.9224L30.3733 34.9847C30.7174 35.1961 31.1616 35.1431 31.4464 34.8559L35.2886 30.9897C35.482 30.7884 35.8022 30.7884 35.9956 30.9897C36.189 31.1843 36.189 31.4997 35.9956 31.7011L32.1467 35.5679C31.8612 35.8544 31.8079 36.3007 32.018 36.647L34.0681 40.036C34.3082 40.4387 34.7217 40.6668 35.1752 40.6668C35.2286 40.6668 35.2886 40.6668 35.342 40.6601C35.8622 40.593 36.2757 40.2373 36.4291 39.734L39.6104 29.0167C39.7505 28.5603 39.6237 28.0637 39.2903 27.7215Z" fill="white"/>
</svg>
