<svg width="42" height="42" viewBox="0 0 42 42" fill="none" xmlns="http://www.w3.org/2000/svg">
<rect width="42" height="42" rx="21" fill="#E5F1FF"/>
<path d="M23.4183 14.4898C22.9422 14.4018 22.505 14.7056 22.4144 15.1703C22.3238 15.635 22.6285 16.0887 23.0916 16.1796C24.4859 16.4514 25.5624 17.5307 25.8353 18.9297V18.9307C25.913 19.3334 26.2675 19.6262 26.6759 19.6262C26.7306 19.6262 26.7854 19.6212 26.8412 19.6112C27.3043 19.5183 27.609 19.0656 27.5184 18.5999C27.1111 16.5104 25.5027 14.8965 23.4183 14.4898Z" fill="#007AFF"/>
<path d="M23.3558 11.0079C23.1328 10.976 22.9087 11.0419 22.7304 11.1838C22.5472 11.3277 22.4326 11.5356 22.4078 11.7684C22.355 12.2391 22.6946 12.6648 23.1646 12.7178C26.4063 13.0795 28.9259 15.6048 29.2904 18.8565C29.3392 19.2922 29.7047 19.621 30.1409 19.621C30.1738 19.621 30.2057 19.619 30.2385 19.615C30.4666 19.59 30.6698 19.4771 30.8132 19.2972C30.9556 19.1174 31.0203 18.8935 30.9944 18.6647C30.5403 14.6075 27.4002 11.4586 23.3558 11.0079Z" fill="#007AFF"/>
<path fill-rule="evenodd" clip-rule="evenodd" d="M20.0317 21.9724C24.0208 25.9604 24.9258 21.3467 27.4656 23.8848C29.9143 26.3328 31.3216 26.8232 28.2192 29.9247C27.8306 30.237 25.3616 33.9943 16.6846 25.3197C8.00652 16.644 11.7616 14.1724 12.074 13.7839C15.1839 10.6738 15.6659 12.0894 18.1145 14.5373C20.6544 17.0765 16.0427 17.9844 20.0317 21.9724Z" fill="#007AFF"/>
</svg>
