<svg width="42" height="42" viewBox="0 0 42 42" fill="none" xmlns="http://www.w3.org/2000/svg">
<rect width="42" height="42" rx="21" fill="#E5F1FF"/>
<path fill-rule="evenodd" clip-rule="evenodd" d="M11 21.015C11 15.7471 15.21 11 21.02 11C26.7 11 31 15.657 31 20.985C31 27.1642 25.96 31 21 31C19.36 31 17.54 30.5593 16.08 29.698C15.57 29.3876 15.14 29.1572 14.59 29.3375L12.57 29.9384C12.06 30.0986 11.6 29.698 11.75 29.1572L12.42 26.9139C12.53 26.6034 12.51 26.2729 12.35 26.0125C11.49 24.4301 11 22.6975 11 21.015ZM19.7 21.015C19.7 21.7261 20.27 22.2969 20.98 22.307C21.69 22.307 22.26 21.7261 22.26 21.025C22.26 20.314 21.69 19.7431 20.98 19.7431C20.28 19.7331 19.7 20.314 19.7 21.015ZM24.31 21.025C24.31 21.7261 24.88 22.307 25.59 22.307C26.3 22.307 26.87 21.7261 26.87 21.025C26.87 20.314 26.3 19.7431 25.59 19.7431C24.88 19.7431 24.31 20.314 24.31 21.025ZM16.37 22.307C15.67 22.307 15.09 21.7261 15.09 21.025C15.09 20.314 15.66 19.7431 16.37 19.7431C17.08 19.7431 17.65 20.314 17.65 21.025C17.65 21.7261 17.08 22.2969 16.37 22.307Z" fill="#007AFF"/>
</svg>
