<svg width="18" height="18" viewBox="0 0 18 18" fill="none" xmlns="http://www.w3.org/2000/svg">
<path d="M16.8628 1.15198C16.446 0.724157 15.829 0.564773 15.2538 0.732546L1.83999 4.63326C1.23307 4.80187 0.802896 5.2859 0.687015 5.90079C0.568633 6.52658 0.982136 7.32098 1.52236 7.65317L5.71657 10.231C6.14675 10.4952 6.70198 10.429 7.05796 10.0699L11.8608 5.23724C12.1025 4.98559 12.5027 4.98559 12.7445 5.23724C12.9862 5.48051 12.9862 5.87478 12.7445 6.12644L7.93331 10.96C7.5765 11.3182 7.50981 11.876 7.77242 12.3089L10.3351 16.5451C10.6353 17.0484 11.1521 17.3337 11.719 17.3337C11.7857 17.3337 11.8608 17.3337 11.9275 17.3253C12.5777 17.2414 13.0946 16.7968 13.2863 16.1676L17.263 2.77098C17.438 2.20056 17.2796 1.5798 16.8628 1.15198Z" fill="white"/>
</svg>
