<svg width="25" height="24" viewBox="0 0 25 24" fill="none" xmlns="http://www.w3.org/2000/svg">
<g id="Logout">
<path id="Fill 1" fill-rule="evenodd" clip-rule="evenodd" d="M11.2058 23.6663H5.50551C2.65418 23.6663 0.333679 21.3458 0.333679 18.4922V5.50834C0.333679 2.65467 2.65418 0.333008 5.50551 0.333008H11.193C14.0467 0.333008 16.3683 2.65467 16.3683 5.50834V6.59567C16.3683 7.07867 15.9763 7.47067 15.4933 7.47067C15.0103 7.47067 14.6183 7.07867 14.6183 6.59567V5.50834C14.6183 3.61834 13.0818 2.08301 11.193 2.08301H5.50551C3.61901 2.08301 2.08368 3.61834 2.08368 5.50834V18.4922C2.08368 20.381 3.61901 21.9163 5.50551 21.9163H11.2058C13.0865 21.9163 14.6183 20.3857 14.6183 18.505V17.4048C14.6183 16.9218 15.0103 16.5298 15.4933 16.5298C15.9763 16.5298 16.3683 16.9218 16.3683 17.4048V18.505C16.3683 21.3517 14.0513 23.6663 11.2058 23.6663Z" fill="#F75555"/>
<g id="Group 5">
<mask id="mask0_1008_1995" style="mask-type:luminance" maskUnits="userSpaceOnUse" x="8" y="11" width="17" height="2">
<path id="Clip 4" fill-rule="evenodd" clip-rule="evenodd" d="M8.49545 11.125H24.2932V12.875H8.49545V11.125Z" fill="white"/>
</mask>
<g mask="url(#mask0_1008_1995)">
<path id="Fill 3" fill-rule="evenodd" clip-rule="evenodd" d="M23.4183 12.875H9.37045C8.88745 12.875 8.49545 12.483 8.49545 12C8.49545 11.517 8.88745 11.125 9.37045 11.125H23.4183C23.9013 11.125 24.2933 11.517 24.2933 12C24.2933 12.483 23.9013 12.875 23.4183 12.875Z" fill="#F75555"/>
</g>
</g>
<g id="Group 8">
<mask id="mask1_1008_1995" style="mask-type:luminance" maskUnits="userSpaceOnUse" x="19" y="7" width="6" height="10">
<path id="Clip 7" fill-rule="evenodd" clip-rule="evenodd" d="M19.1279 7.72461H24.2932V16.2772H19.1279V7.72461Z" fill="white"/>
</mask>
<g mask="url(#mask1_1008_1995)">
<path id="Fill 6" fill-rule="evenodd" clip-rule="evenodd" d="M20.0026 16.2772C19.7786 16.2772 19.5535 16.192 19.3831 16.0193C19.0425 15.6763 19.0436 15.1233 19.3855 14.7827L22.1785 12.0002L19.3855 9.21882C19.0436 8.87815 19.0413 8.32515 19.3831 7.98215C19.7238 7.63915 20.2768 7.63915 20.6198 7.97982L24.0358 11.3807C24.2015 11.544 24.2936 11.768 24.2936 12.0002C24.2936 12.2323 24.2015 12.4563 24.0358 12.6197L20.6198 16.0217C20.4495 16.192 20.2255 16.2772 20.0026 16.2772Z" fill="#F75555"/>
</g>
</g>
</g>
</svg>
