<svg width="24" height="26" viewBox="0 0 24 26" fill="none" xmlns="http://www.w3.org/2000/svg">
<g id="Group">
<path id="Vector" fill-rule="evenodd" clip-rule="evenodd" d="M12 7.45801C11.0818 7.45801 10.1868 7.74692 9.44189 8.28382C8.69698 8.82073 8.13988 9.5784 7.84951 10.4495C7.55914 11.3206 7.55022 12.261 7.824 13.1375C8.09779 14.014 8.64041 14.7821 9.375 15.333V16.4997C9.375 17.6267 10.2897 18.5413 11.4167 18.5413H12.5833C13.1248 18.5413 13.6441 18.3262 14.027 17.9433C14.4099 17.5605 14.625 17.0412 14.625 16.4997V15.333C15.3596 14.7821 15.9022 14.014 16.176 13.1375C16.4498 12.261 16.4409 11.3206 16.1505 10.4495C15.8601 9.5784 15.303 8.82073 14.5581 8.28382C13.8132 7.74692 12.9182 7.45801 12 7.45801ZM9.375 11.833C9.37518 11.3722 9.49665 10.9196 9.72721 10.5206C9.95777 10.1216 10.2893 9.79039 10.6884 9.56015C11.0876 9.32992 11.5403 9.20882 12.0011 9.20902C12.4619 9.20922 12.9146 9.33071 13.3135 9.56129C13.7125 9.79187 14.0437 10.1234 14.2739 10.5226C14.5041 10.9217 14.6252 11.3745 14.625 11.8353C14.6248 12.2961 14.5033 12.7487 14.2727 13.1476C14.0421 13.5466 13.7105 13.8778 13.3113 14.108C13.1786 14.1849 13.0685 14.2953 12.9919 14.4282C12.9153 14.5611 12.875 14.7118 12.875 14.8652V16.4997C12.875 16.577 12.8443 16.6512 12.7896 16.7059C12.7349 16.7606 12.6607 16.7913 12.5833 16.7913H11.4167C11.3393 16.7913 11.2651 16.7606 11.2104 16.7059C11.1557 16.6512 11.125 16.577 11.125 16.4997V14.8652C11.1252 14.7116 11.085 14.5607 11.0084 14.4276C10.9318 14.2944 10.8215 14.1838 10.6887 14.1068C10.2893 13.8766 9.95767 13.5452 9.72706 13.146C9.49645 12.7468 9.37503 12.294 9.375 11.833Z" fill="#007AFF"/>
<path id="Vector_2" fill-rule="evenodd" clip-rule="evenodd" d="M12 0.458008C10.9068 0.458008 9.8615 0.816175 8.17683 1.39251L7.32867 1.68417C5.60083 2.27451 4.26617 2.73184 3.31183 3.11917C2.83117 3.31401 2.417 3.50417 2.0845 3.69667C1.76367 3.88334 1.44283 4.11551 1.22467 4.42701C1.00883 4.73384 0.896833 5.11184 0.826833 5.47701C0.753333 5.85501 0.710167 6.30884 0.681 6.83034C0.625 7.86401 0.625 9.28267 0.625 11.1213V12.9892C0.625 20.107 6.001 23.5195 9.19767 24.9172L9.22917 24.93C9.62583 25.1038 9.99917 25.266 10.4273 25.3757C10.8788 25.4923 11.3595 25.5413 12 25.5413C12.6417 25.5413 13.12 25.4923 13.5727 25.3757C14.0008 25.266 14.3742 25.1038 14.7697 24.93L14.8023 24.9172C17.999 23.5195 23.375 20.107 23.375 12.9892V11.1213C23.375 9.28267 23.375 7.86401 23.319 6.82917C23.2997 6.37538 23.251 5.92332 23.1732 5.47584C23.1032 5.11184 22.9912 4.73384 22.7765 4.42584C22.5572 4.11551 22.2363 3.88334 21.9155 3.69667C21.5193 3.47792 21.1093 3.28502 20.6882 3.11917C19.7338 2.73184 18.3992 2.27451 16.6713 1.68417L15.8232 1.39251C14.1385 0.816175 13.0932 0.458008 12 0.458008ZM8.59333 3.09934C10.4775 2.45534 11.2323 2.20801 12 2.20801C12.7677 2.20801 13.5225 2.45534 15.4067 3.09934L16.074 3.32801C17.8392 3.93234 19.126 4.37334 20.029 4.73967C20.4805 4.92401 20.8072 5.07801 21.037 5.21101C21.149 5.27634 21.2299 5.3304 21.2797 5.37317C21.324 5.40817 21.3415 5.42917 21.3438 5.43151C21.3592 5.45895 21.3717 5.48788 21.3812 5.51784C21.4045 5.58162 21.429 5.67806 21.4547 5.80717C21.5192 6.17661 21.5582 6.55005 21.5713 6.92484C21.625 7.90601 21.625 9.27567 21.625 11.1528V12.9892C21.625 19.0278 17.11 21.9993 14.1012 23.313C13.6683 23.502 13.4175 23.6093 13.1387 23.6805C12.8727 23.7493 12.5483 23.7913 12 23.7913C11.4517 23.7913 11.1273 23.7493 10.8613 23.6805C10.5813 23.6105 10.3317 23.502 9.89883 23.313C6.88883 21.9993 2.375 19.0267 2.375 12.9892V11.1528C2.375 9.27567 2.375 7.90601 2.42867 6.92484C2.44185 6.55005 2.48083 6.17661 2.54533 5.80717C2.57022 5.67806 2.59472 5.58162 2.61883 5.51784C2.63983 5.45951 2.65383 5.43617 2.65617 5.43151C2.6757 5.41011 2.69718 5.39058 2.72033 5.37317C2.77011 5.3304 2.851 5.27595 2.963 5.20984C3.19283 5.07684 3.5195 4.92401 3.971 4.74084C4.874 4.37334 6.16083 3.93234 7.926 3.32917L8.59333 3.09934Z" fill="#007AFF"/>
</g>
</svg>
