<svg width="28" height="28" viewBox="0 0 28 28" fill="none" xmlns="http://www.w3.org/2000/svg">
<g id="solar:user-outline">
<path id="Vector" fill-rule="evenodd" clip-rule="evenodd" d="M14 1.45801C12.5303 1.45801 11.1207 2.04186 10.0814 3.08112C9.04218 4.12039 8.45833 5.52993 8.45833 6.99967C8.45833 8.46942 9.04218 9.87896 10.0814 10.9182C11.1207 11.9575 12.5303 12.5413 14 12.5413C15.4697 12.5413 16.8793 11.9575 17.9185 10.9182C18.9578 9.87896 19.5417 8.46942 19.5417 6.99967C19.5417 5.52993 18.9578 4.12039 17.9185 3.08112C16.8793 2.04186 15.4697 1.45801 14 1.45801ZM10.2083 6.99967C10.2083 5.99406 10.6078 5.02964 11.3189 4.31856C12.03 3.60749 12.9944 3.20801 14 3.20801C15.0056 3.20801 15.97 3.60749 16.6811 4.31856C17.3922 5.02964 17.7917 5.99406 17.7917 6.99967C17.7917 8.00529 17.3922 8.96971 16.6811 9.68079C15.97 10.3919 15.0056 10.7913 14 10.7913C12.9944 10.7913 12.03 10.3919 11.3189 9.68079C10.6078 8.96971 10.2083 8.00529 10.2083 6.99967ZM14 14.2913C11.3015 14.2913 8.81416 14.905 6.97199 15.941C5.15666 16.963 3.79166 18.51 3.79166 20.4163V20.5353C3.79049 21.891 3.78933 23.592 5.28149 24.8077C6.01533 25.405 7.04316 25.8308 8.43149 26.1108C9.82216 26.3932 11.6363 26.5413 14 26.5413C16.3637 26.5413 18.1767 26.3932 19.5697 26.1108C20.958 25.8308 21.9847 25.405 22.7197 24.8077C24.2118 23.592 24.2095 21.891 24.2083 20.5353V20.4163C24.2083 18.51 22.8433 16.963 21.0292 15.941C19.1858 14.905 16.6997 14.2913 14 14.2913ZM5.54166 20.4163C5.54166 19.4235 6.26733 18.3455 7.82949 17.467C9.36483 16.6037 11.5442 16.0413 14.0012 16.0413C16.4558 16.0413 18.6352 16.6037 20.1705 17.467C21.7338 18.3455 22.4583 19.4235 22.4583 20.4163C22.4583 21.9423 22.4117 22.801 21.6137 23.4497C21.182 23.802 20.4587 24.1462 19.222 24.3958C17.9888 24.6455 16.303 24.7913 14 24.7913C11.697 24.7913 10.01 24.6455 8.77799 24.3958C7.54133 24.1462 6.81799 23.802 6.38633 23.4508C5.58833 22.801 5.54166 21.9423 5.54166 20.4163Z" fill="#007AFF"/>
</g>
</svg>
