<svg width="20" height="24" viewBox="0 0 20 24" fill="none" xmlns="http://www.w3.org/2000/svg">
<g id="Location">
<path id="Fill 1" fill-rule="evenodd" clip-rule="evenodd" d="M10.2922 7.91602C9.16641 7.91602 8.25058 8.83185 8.25058 9.95885C8.25058 11.0847 9.16641 11.9993 10.2922 11.9993C11.4181 11.9993 12.3339 11.0847 12.3339 9.95885C12.3339 8.83185 11.4181 7.91602 10.2922 7.91602ZM10.2922 13.7493C8.20158 13.7493 6.50058 12.0495 6.50058 9.95885C6.50058 7.86702 8.20158 6.16602 10.2922 6.16602C12.3829 6.16602 14.0839 7.86702 14.0839 9.95885C14.0839 12.0495 12.3829 13.7493 10.2922 13.7493Z" fill="#007AFF"/>
<g id="Group 5">
<mask id="mask0_1008_1588" style="mask-type:luminance" maskUnits="userSpaceOnUse" x="0" y="0" width="20" height="24">
<path id="Clip 4" fill-rule="evenodd" clip-rule="evenodd" d="M0.666656 0.333008H19.9161V23.083H0.666656V0.333008Z" fill="white"/>
</mask>
<g mask="url(#mask0_1008_1588)">
<path id="Fill 3" fill-rule="evenodd" clip-rule="evenodd" d="M10.2911 2.08301C5.94874 2.08301 2.41608 5.64951 2.41608 10.0315C2.41608 15.607 8.97741 21.039 10.2911 21.3283C11.6047 21.0378 18.1661 15.6058 18.1661 10.0315C18.1661 5.64951 14.6334 2.08301 10.2911 2.08301ZM10.2911 23.083C8.19808 23.083 0.666077 16.6057 0.666077 10.0315C0.666077 4.68351 4.98391 0.333008 10.2911 0.333008C15.5982 0.333008 19.9161 4.68351 19.9161 10.0315C19.9161 16.6057 12.3841 23.083 10.2911 23.083Z" fill="#007AFF"/>
</g>
</g>
</g>
</svg>
