<svg width="23" height="25" viewBox="0 0 23 25" fill="none" xmlns="http://www.w3.org/2000/svg">
<g id="Setting">
<g id="Group 3">
<mask id="mask0_1008_870" style="mask-type:luminance" maskUnits="userSpaceOnUse" x="0" y="0" width="23" height="25">
<path id="Clip 2" fill-rule="evenodd" clip-rule="evenodd" d="M0.333344 0.333984H22.8323V24.5085H0.333344V0.333984Z" fill="white"/>
</mask>
<g mask="url(#mask0_1008_870)">
<path id="Fill 1" fill-rule="evenodd" clip-rule="evenodd" d="M6.40256 18.3473C6.66973 18.3473 6.9369 18.3812 7.19823 18.4512C7.9869 18.6635 8.67173 19.1908 9.07773 19.899C9.3414 20.3435 9.48723 20.8626 9.4919 21.3923C9.4919 22.1507 10.1009 22.7585 10.8499 22.7585H12.3117C13.0572 22.7585 13.6662 22.1542 13.6697 21.4086C13.6651 20.585 13.9871 19.8022 14.5762 19.213C15.1572 18.632 15.9692 18.2831 16.7812 18.3065C17.3132 18.3193 17.8254 18.4628 18.2769 18.7195C18.9267 19.0917 19.7562 18.87 20.1319 18.2283L20.9066 16.9368C21.0792 16.6393 21.1294 16.266 21.0372 15.9218C20.9462 15.5777 20.7176 15.279 20.4096 15.1028C19.6886 14.6875 19.1741 14.0178 18.9606 13.2152C18.7494 12.4277 18.8649 11.5678 19.2767 10.8597C19.5451 10.393 19.9382 9.99982 20.4096 9.72915C21.0419 9.35932 21.2636 8.53215 20.8961 7.88815C20.8809 7.86248 20.8669 7.83565 20.8552 7.80765L20.1716 6.62232C19.7994 5.97482 18.9711 5.75198 18.3212 6.12182C17.6189 6.53715 16.7836 6.65615 15.9809 6.44498C15.1794 6.23732 14.5074 5.72982 14.0886 5.01348C13.8202 4.56548 13.6744 4.04398 13.6697 3.51315C13.6802 3.11415 13.5402 2.75598 13.2859 2.49348C13.0327 2.23215 12.6769 2.08398 12.3117 2.08398H10.8499C10.4882 2.08398 10.1499 2.22515 9.8944 2.47948C9.64006 2.73498 9.50123 3.07448 9.50356 3.43615C9.47906 5.14182 8.0849 6.51498 6.39673 6.51498C5.8554 6.50915 5.3339 6.36332 4.88123 6.09265C4.2454 5.73098 3.41473 5.95382 3.04256 6.60132L2.25273 7.89982C1.89106 8.52748 2.11273 9.35698 2.75673 9.73148C3.71223 10.2845 4.3084 11.3158 4.3084 12.4218C4.3084 13.5278 3.71223 14.558 2.7544 15.1122C2.1139 15.4832 1.89223 16.308 2.26323 16.9496L2.9994 18.219C3.1814 18.5468 3.4789 18.7837 3.82306 18.8805C4.16606 18.9762 4.54406 18.9353 4.85906 18.7603C5.32223 18.4885 5.86123 18.3473 6.40256 18.3473ZM12.3117 24.5085H10.8499C9.13606 24.5085 7.7419 23.1155 7.7419 21.4017C7.73956 21.1905 7.6789 20.9711 7.56573 20.781C7.38256 20.4613 7.08623 20.2327 6.7444 20.1417C6.4049 20.0507 6.03273 20.1008 5.72706 20.2781C4.9944 20.6865 4.13223 20.7857 3.34356 20.564C2.55606 20.3412 1.8759 19.7998 1.4769 19.0823L0.747731 17.8258C-0.105103 16.3465 0.402397 14.4507 1.8794 13.5967C2.29823 13.3552 2.5584 12.9048 2.5584 12.4218C2.5584 11.9388 2.29823 11.4873 1.8794 11.2458C0.401231 10.3872 -0.105103 8.48665 0.746564 7.00732L1.53756 5.70882C2.37873 4.24582 4.2804 3.73015 5.76323 4.58182C5.96506 4.70198 6.1844 4.76265 6.40723 4.76498C7.13406 4.76498 7.7419 4.16532 7.75356 3.42798C7.7489 2.61482 8.06973 1.83432 8.65423 1.24515C9.24107 0.657151 10.0204 0.333984 10.8499 0.333984H12.3117C13.1471 0.333984 13.9591 0.676984 14.5412 1.27315C15.1222 1.87282 15.4431 2.69532 15.4186 3.52948C15.4209 3.71732 15.4827 3.93432 15.5947 4.12448C15.7802 4.43948 16.0731 4.66115 16.4207 4.75215C16.7684 4.83848 17.1324 4.79182 17.4416 4.60865C18.9349 3.75582 20.8354 4.26682 21.6882 5.74848L22.4151 7.00732C22.4337 7.04115 22.4501 7.07382 22.4641 7.10765C23.2364 8.56715 22.7207 10.4047 21.2857 11.2435C21.0769 11.3637 20.9077 11.5317 20.7911 11.7347C20.6102 12.0485 20.5601 12.4218 20.6511 12.7648C20.7444 13.1148 20.9672 13.4053 21.2811 13.585C21.9892 13.9922 22.5177 14.6782 22.7289 15.4703C22.9401 16.2613 22.8246 17.12 22.4127 17.8281L21.6381 19.1185C20.7852 20.5838 18.8847 21.0913 17.4066 20.2373C17.2094 20.1241 16.9819 20.0623 16.7556 20.0565H16.7486C16.4114 20.0565 16.0649 20.2 15.8129 20.4508C15.5574 20.7063 15.4174 21.047 15.4197 21.4086C15.4116 23.1225 14.0174 24.5085 12.3117 24.5085Z" fill="#007AFF"/>
</g>
</g>
<path id="Fill 4" fill-rule="evenodd" clip-rule="evenodd" d="M11.586 10.2207C10.3726 10.2207 9.38562 11.2089 9.38562 12.4222C9.38562 13.6355 10.3726 14.6214 11.586 14.6214C12.7993 14.6214 13.7863 13.6355 13.7863 12.4222C13.7863 11.2089 12.7993 10.2207 11.586 10.2207ZM11.586 16.3714C9.40779 16.3714 7.63562 14.6004 7.63562 12.4222C7.63562 10.244 9.40779 8.4707 11.586 8.4707C13.7641 8.4707 15.5363 10.244 15.5363 12.4222C15.5363 14.6004 13.7641 16.3714 11.586 16.3714Z" fill="#007AFF"/>
</g>
</svg>
