<svg width="21" height="25" viewBox="0 0 21 25" fill="none" xmlns="http://www.w3.org/2000/svg">
<g id="Bookmark">
<g id="Group 3">
<mask id="mask0_1008_1971" style="mask-type:luminance" maskUnits="userSpaceOnUse" x="0" y="0" width="21" height="25">
<path id="Clip 2" fill-rule="evenodd" clip-rule="evenodd" d="M0.5 0.333008H20.3786V24.6542H0.5V0.333008Z" fill="white"/>
</mask>
<g mask="url(#mask0_1008_1971)">
<path id="Fill 1" fill-rule="evenodd" clip-rule="evenodd" d="M6.73209 2.08301C3.75826 2.08301 2.24976 3.22867 2.24976 5.49084V22.6688C2.24976 22.7785 2.31276 22.838 2.36526 22.8683C2.41776 22.901 2.50059 22.9243 2.59626 22.8707L10.0419 18.694C10.3079 18.5458 10.6334 18.5447 10.9006 18.6952L18.2821 22.8648C18.3789 22.9208 18.4618 22.8952 18.5143 22.8637C18.5668 22.8322 18.6286 22.7727 18.6286 22.663V5.70434C18.6286 4.80951 18.6286 2.08301 14.1509 2.08301H6.73209ZM2.48192 24.6545C2.13776 24.6545 1.79359 24.5623 1.48092 24.378C0.866089 24.0198 0.499756 23.3793 0.499756 22.6688V5.49084C0.499756 2.21251 2.77126 0.333008 6.73209 0.333008H14.1509C18.1083 0.333008 20.3786 2.29184 20.3786 5.70434V22.663C20.3786 23.3747 20.0123 24.0152 19.3963 24.3733C18.7826 24.7327 18.0429 24.7397 17.4223 24.3897L10.4689 20.4615L3.45142 24.3978C3.14809 24.5682 2.81559 24.6545 2.48192 24.6545Z" fill="#007AFF"/>
</g>
</g>
<path id="Fill 4" fill-rule="evenodd" clip-rule="evenodd" d="M14.6629 9.93262H6.12521C5.64221 9.93262 5.25021 9.54062 5.25021 9.05762C5.25021 8.57462 5.64221 8.18262 6.12521 8.18262H14.6629C15.1459 8.18262 15.5379 8.57462 15.5379 9.05762C15.5379 9.54062 15.1459 9.93262 14.6629 9.93262Z" fill="#007AFF"/>
</g>
</svg>
