<svg width="20" height="20" viewBox="0 0 20 20" fill="none" xmlns="http://www.w3.org/2000/svg">
<path fill-rule="evenodd" clip-rule="evenodd" d="M2.815 4.23508C2.5 4.68341 2.5 6.01675 2.5 8.68091V9.99258C2.5 14.6909 6.0325 16.9717 8.24917 17.9392C8.85 18.2017 9.15083 18.3334 10 18.3334C10.85 18.3334 11.15 18.2017 11.7508 17.9392C13.9675 16.9709 17.5 14.6917 17.5 9.99258V8.68091C17.5 6.01591 17.5 4.68341 17.185 4.23508C16.8708 3.78758 15.6183 3.35841 13.1125 2.50091L12.635 2.33758C11.3292 1.89008 10.6767 1.66675 10 1.66675C9.32417 1.66675 8.67083 1.89008 7.365 2.33758L6.8875 2.50008C4.38167 3.35841 3.12917 3.78758 2.815 4.23508ZM12.55 8.75008C12.6047 8.6888 12.6467 8.61735 12.6738 8.53981C12.7008 8.46227 12.7123 8.38017 12.7076 8.29818C12.703 8.21619 12.6822 8.13593 12.6465 8.06198C12.6108 7.98803 12.5609 7.92183 12.4996 7.86716C12.4383 7.8125 12.3668 7.77044 12.2893 7.7434C12.2118 7.71635 12.1297 7.70483 12.0477 7.70952C11.9657 7.7142 11.8854 7.73498 11.8115 7.77068C11.7375 7.80638 11.6713 7.8563 11.6167 7.91758L9.1075 10.7292L8.3825 9.91758C8.2717 9.79514 8.11694 9.72153 7.95204 9.71282C7.78714 9.70412 7.62549 9.76103 7.50241 9.87111C7.37933 9.9812 7.30482 10.1355 7.29516 10.3004C7.28549 10.4652 7.34146 10.6272 7.45083 10.7509L8.64083 12.0842C8.69946 12.1499 8.7713 12.2025 8.85165 12.2385C8.932 12.2744 9.01905 12.293 9.10708 12.293C9.19512 12.293 9.28216 12.2744 9.36251 12.2385C9.44286 12.2025 9.51471 12.1499 9.57333 12.0842L12.55 8.75008Z" fill="#828282"/>
</svg>
