<svg width="24" height="24" viewBox="0 0 24 24" fill="none" xmlns="http://www.w3.org/2000/svg">
<g id="solar:transfer-vertical-outline">
<path id="Vector" fill-rule="evenodd" clip-rule="evenodd" d="M13.698 3.314C13.8312 3.25526 13.9786 3.23656 14.1223 3.26017C14.2659 3.28379 14.3996 3.34871 14.507 3.447L20.507 8.947C20.5796 9.01358 20.6384 9.09381 20.68 9.18312C20.7216 9.27242 20.7453 9.36904 20.7495 9.46747C20.7538 9.5659 20.7386 9.66421 20.7049 9.75678C20.6712 9.84935 20.6196 9.93438 20.553 10.007C20.4864 10.0796 20.4062 10.1384 20.3169 10.18C20.2276 10.2216 20.131 10.2453 20.0325 10.2495C19.9341 10.2538 19.8358 10.2386 19.7432 10.2049C19.6506 10.1712 19.5656 10.1196 19.493 10.053L14.75 5.705V20C14.75 20.1989 14.671 20.3897 14.5303 20.5303C14.3897 20.671 14.1989 20.75 14 20.75C13.8011 20.75 13.6103 20.671 13.4697 20.5303C13.329 20.3897 13.25 20.1989 13.25 20V4C13.2499 3.85436 13.2922 3.71183 13.3718 3.58984C13.4513 3.46784 13.5647 3.37265 13.698 3.314ZM10 3.25C10.1989 3.25 10.3897 3.32902 10.5303 3.46967C10.671 3.61032 10.75 3.80109 10.75 4V20C10.7501 20.1456 10.7077 20.2881 10.6282 20.4101C10.5486 20.532 10.4353 20.6282 10.302 20.6868C10.1687 20.7455 10.0213 20.764 9.87759 20.7403C9.73393 20.7165 9.6003 20.6514 9.493 20.553L3.493 15.053C3.34633 14.9185 3.25909 14.7313 3.25046 14.5325C3.24184 14.3337 3.31253 14.1397 3.447 13.993C3.58146 13.8463 3.76868 13.7591 3.96747 13.7505C4.16626 13.7418 4.36033 13.8125 4.507 13.947L9.25 18.295V4C9.25 3.80109 9.32901 3.61032 9.46967 3.46967C9.61032 3.32902 9.80108 3.25 10 3.25Z" fill="#007AFF"/>
</g>
</svg>
