<svg width="28" height="24" viewBox="0 0 28 24" fill="none" xmlns="http://www.w3.org/2000/svg">
<g id="Volume Up">
<path id="Volume Up_2" fill-rule="evenodd" clip-rule="evenodd" d="M15.6964 5.06321C15.6335 4.45528 15.5679 3.82454 15.4067 3.19515C14.9676 1.68942 13.7512 0.750022 12.447 0.750022C11.7196 0.747338 10.7994 1.19557 10.2777 1.64916L5.95359 5.27122H3.68993C2.02397 5.27122 0.684388 6.55551 0.431414 8.40882C0.216452 10.1883 0.164022 13.5473 0.431414 15.5053C0.663416 17.4633 1.94271 18.7288 3.68993 18.7288H5.95359L10.3616 22.4045C10.8138 22.7977 11.6121 23.2487 12.3461 23.2487C12.3933 23.25 12.4352 23.25 12.4772 23.25C13.8063 23.25 14.9768 22.2757 15.4159 20.774C15.5813 20.1392 15.6393 19.5441 15.6953 18.969L15.6964 18.9583L15.7554 18.3852C15.9808 16.5266 15.9808 7.46136 15.7554 5.61611L15.6964 5.06321ZM20.7582 5.11823C20.3978 4.5868 19.6834 4.45394 19.1604 4.82299C18.6427 5.19473 18.5142 5.92746 18.8747 6.45755C19.8774 7.93509 20.4292 9.90247 20.4292 12C20.4292 14.0962 19.8774 16.0649 18.8747 17.5425C18.5142 18.0726 18.6427 18.8053 19.1617 19.177C19.3557 19.3139 19.5825 19.3864 19.8158 19.3864C20.192 19.3864 20.5433 19.1972 20.7582 18.8818C22.0244 17.0164 22.723 14.5726 22.723 12C22.723 9.4274 22.0244 6.98361 20.7582 5.11823ZM23.1126 1.02634C23.6343 0.65595 24.3512 0.791492 24.7091 1.32158C26.6699 4.20822 27.75 8.00206 27.75 11.9999C27.75 16.0004 26.6699 19.7929 24.7091 22.6795C24.4954 22.9949 24.1428 23.1841 23.7666 23.1841C23.5333 23.1841 23.3079 23.1116 23.1139 22.9748C22.5948 22.603 22.4664 21.8716 22.8255 21.3402C24.5216 18.8414 25.4562 15.524 25.4562 11.9999C25.4562 8.47713 24.5216 5.1597 22.8255 2.6609C22.4664 2.13081 22.5948 1.39808 23.1126 1.02634Z" fill="white"/>
</g>
</svg>
