<svg width="22" height="20" viewBox="0 0 22 20" fill="none" xmlns="http://www.w3.org/2000/svg">
<g id="Wallet">
<path id="Fill 1" fill-rule="evenodd" clip-rule="evenodd" d="M20.3887 12.8957H16.3407C14.4437 12.8957 12.8997 11.3527 12.8987 9.45667C12.8987 7.55867 14.4427 6.01467 16.3407 6.01367H20.3887C20.8027 6.01367 21.1387 6.34967 21.1387 6.76367C21.1387 7.17767 20.8027 7.51367 20.3887 7.51367H16.3407C15.2697 7.51467 14.3987 8.38567 14.3987 9.45567C14.3987 10.5247 15.2707 11.3957 16.3407 11.3957H20.3887C20.8027 11.3957 21.1387 11.7317 21.1387 12.1457C21.1387 12.5597 20.8027 12.8957 20.3887 12.8957Z" fill="#007AFF"/>
<path id="Fill 3" fill-rule="evenodd" clip-rule="evenodd" d="M16.7983 10.1436H16.4863C16.0723 10.1436 15.7363 9.80755 15.7363 9.39355C15.7363 8.97955 16.0723 8.64355 16.4863 8.64355H16.7983C17.2123 8.64355 17.5483 8.97955 17.5483 9.39355C17.5483 9.80755 17.2123 10.1436 16.7983 10.1436Z" fill="#007AFF"/>
<g id="Group 7">
<mask id="mask0_980_955" style="mask-type:luminance" maskUnits="userSpaceOnUse" x="0" y="0" width="22" height="20">
<path id="Clip 6" fill-rule="evenodd" clip-rule="evenodd" d="M0.5 0H21.1386V19.1729H0.5V0Z" fill="white"/>
</mask>
<g mask="url(#mask0_980_955)">
<path id="Fill 5" fill-rule="evenodd" clip-rule="evenodd" d="M6.4976 1.5C4.0176 1.5 1.9996 3.518 1.9996 5.998V13.175C1.9996 15.655 4.0176 17.673 6.4976 17.673H15.1416C17.6216 17.673 19.6386 15.655 19.6386 13.175V5.998C19.6386 3.518 17.6216 1.5 15.1416 1.5H6.4976ZM15.1416 19.173H6.4976C3.1906 19.173 0.499603 16.482 0.499603 13.175V5.998C0.499603 2.69 3.1906 0 6.4976 0H15.1416C18.4486 0 21.1386 2.69 21.1386 5.998V13.175C21.1386 16.482 18.4486 19.173 15.1416 19.173Z" fill="#007AFF"/>
</g>
</g>
<path id="Fill 8" fill-rule="evenodd" clip-rule="evenodd" d="M11.1846 6.03809H5.7856C5.3716 6.03809 5.0356 5.70209 5.0356 5.28809C5.0356 4.87409 5.3716 4.53809 5.7856 4.53809H11.1846C11.5986 4.53809 11.9346 4.87409 11.9346 5.28809C11.9346 5.70209 11.5986 6.03809 11.1846 6.03809Z" fill="#007AFF"/>
</g>
</svg>
